<svg xmlns="http://www.w3.org/2000/svg" width="1200" height="720" viewBox="0 0 1200 720">
<style>text{font-family:Microsoft YaHei, SimSun, Arial, sans-serif;fill:#1f2937}.axis{stroke:#9aa4b2;stroke-width:1}.grid{stroke:#e5e7eb;stroke-width:1}</style>
<rect width="1200" height="720" fill="#ffffff"/>
<text x="54" y="48" font-size="26" font-weight="700">问题一：数据清洗覆盖与合格情况</text>
<text x="54" y="76" font-size="14" fill="#596579">原始样本仅审计，不修改；完整解码通过数为100</text>
<text x="18.00" y="345.00" font-size="13" text-anchor="middle" font-weight="400" fill="#1f2937" transform="rotate(-90.0 18.00 345.00)">样本数</text>
<line class="grid" x1="105.00" y1="565.00" x2="1155.00" y2="565.00" stroke-width="1"/>
<text x="95.00" y="569.00" font-size="11" text-anchor="end" font-weight="400" fill="#596579">0</text>
<line class="grid" x1="105.00" y1="477.00" x2="1155.00" y2="477.00" stroke-width="1"/>
<text x="95.00" y="481.00" font-size="11" text-anchor="end" font-weight="400" fill="#596579">24</text>
<line class="grid" x1="105.00" y1="389.00" x2="1155.00" y2="389.00" stroke-width="1"/>
<text x="95.00" y="393.00" font-size="11" text-anchor="end" font-weight="400" fill="#596579">47</text>
<line class="grid" x1="105.00" y1="301.00" x2="1155.00" y2="301.00" stroke-width="1"/>
<text x="95.00" y="305.00" font-size="11" text-anchor="end" font-weight="400" fill="#596579">71</text>
<line class="grid" x1="105.00" y1="213.00" x2="1155.00" y2="213.00" stroke-width="1"/>
<text x="95.00" y="217.00" font-size="11" text-anchor="end" font-weight="400" fill="#596579">94</text>
<line class="grid" x1="105.00" y1="125.00" x2="1155.00" y2="125.00" stroke-width="1"/>
<text x="95.00" y="129.00" font-size="11" text-anchor="end" font-weight="400" fill="#596579">118</text>
<line class="axis" x1="105.00" y1="125.00" x2="105.00" y2="565.00" stroke-width="1.2"/>
<line class="axis" x1="105.00" y1="565.00" x2="1155.00" y2="565.00" stroke-width="1.2"/>
<text x="236.25" y="589.00" font-size="11" text-anchor="middle" font-weight="400" fill="#1f2937">附件1审计样本</text>
<rect x="215.25" y="192.12" width="42.00" height="372.88" fill="#4C9A6A" stroke="none" rx="2"/>
<text x="236.25" y="187.12" font-size="9" text-anchor="middle" font-weight="400" fill="#4b5563">100</text>
<text x="498.75" y="589.00" font-size="11" text-anchor="middle" font-weight="400" fill="#1f2937">合格样本</text>
<rect x="477.75" y="192.12" width="42.00" height="372.88" fill="#4C9A6A" stroke="none" rx="2"/>
<text x="498.75" y="187.12" font-size="9" text-anchor="middle" font-weight="400" fill="#4b5563">100</text>
<text x="761.25" y="589.00" font-size="11" text-anchor="middle" font-weight="400" fill="#1f2937">排除样本</text>
<rect x="740.25" y="565.00" width="42.00" height="0.00" fill="#4C9A6A" stroke="none" rx="2"/>
<text x="761.25" y="560.00" font-size="9" text-anchor="middle" font-weight="400" fill="#4b5563">0</text>
<text x="1023.75" y="589.00" font-size="11" text-anchor="middle" font-weight="400" fill="#1f2937">完整解码检查</text>
<rect x="1002.75" y="192.12" width="42.00" height="372.88" fill="#4C9A6A" stroke="none" rx="2"/>
<text x="1023.75" y="187.12" font-size="9" text-anchor="middle" font-weight="400" fill="#4b5563">100</text>
<rect x="105.00" y="664.00" width="18.00" height="12.00" fill="#4C9A6A" stroke="none" rx="2"/>
<text x="130.00" y="675.00" font-size="13" text-anchor="start" font-weight="400" fill="#1f2937">数量</text>
</svg>