<svg xmlns="http://www.w3.org/2000/svg" width="1200" height="720" viewBox="0 0 1200 720">
<style>text{font-family:Microsoft YaHei, SimSun, Arial, sans-serif;fill:#1f2937}.axis{stroke:#9aa4b2;stroke-width:1}.grid{stroke:#e5e7eb;stroke-width:1}</style>
<rect width="1200" height="720" fill="#ffffff"/>
<text x="54" y="48" font-size="26" font-weight="700">问题二：附件3预测极性分布</text>
<text x="54" y="76" font-size="14" fill="#596579">附件3无标签，仅展示推理结果；n=30</text>
<text x="18.00" y="345.00" font-size="13" text-anchor="middle" font-weight="400" fill="#1f2937" transform="rotate(-90.0 18.00 345.00)">样本数</text>
<line class="grid" x1="105.00" y1="565.00" x2="1155.00" y2="565.00" stroke-width="1"/>
<text x="95.00" y="569.00" font-size="11" text-anchor="end" font-weight="400" fill="#596579">0</text>
<line class="grid" x1="105.00" y1="477.00" x2="1155.00" y2="477.00" stroke-width="1"/>
<text x="95.00" y="481.00" font-size="11" text-anchor="end" font-weight="400" fill="#596579">4</text>
<line class="grid" x1="105.00" y1="389.00" x2="1155.00" y2="389.00" stroke-width="1"/>
<text x="95.00" y="393.00" font-size="11" text-anchor="end" font-weight="400" fill="#596579">7</text>
<line class="grid" x1="105.00" y1="301.00" x2="1155.00" y2="301.00" stroke-width="1"/>
<text x="95.00" y="305.00" font-size="11" text-anchor="end" font-weight="400" fill="#596579">11</text>
<line class="grid" x1="105.00" y1="213.00" x2="1155.00" y2="213.00" stroke-width="1"/>
<text x="95.00" y="217.00" font-size="11" text-anchor="end" font-weight="400" fill="#596579">14</text>
<line class="grid" x1="105.00" y1="125.00" x2="1155.00" y2="125.00" stroke-width="1"/>
<text x="95.00" y="129.00" font-size="11" text-anchor="end" font-weight="400" fill="#596579">18</text>
<line class="axis" x1="105.00" y1="125.00" x2="105.00" y2="565.00" stroke-width="1.2"/>
<line class="axis" x1="105.00" y1="565.00" x2="1155.00" y2="565.00" stroke-width="1.2"/>
<text x="280.00" y="589.00" font-size="11" text-anchor="middle" font-weight="400" fill="#1f2937">Negative</text>
<rect x="259.00" y="415.85" width="42.00" height="149.15" fill="#3B6FB6" stroke="none" rx="2"/>
<text x="280.00" y="410.85" font-size="9" text-anchor="middle" font-weight="400" fill="#4b5563">6</text>
<text x="630.00" y="589.00" font-size="11" text-anchor="middle" font-weight="400" fill="#1f2937">Neutral</text>
<rect x="609.00" y="341.27" width="42.00" height="223.73" fill="#3B6FB6" stroke="none" rx="2"/>
<text x="630.00" y="336.27" font-size="9" text-anchor="middle" font-weight="400" fill="#4b5563">9</text>
<text x="980.00" y="589.00" font-size="11" text-anchor="middle" font-weight="400" fill="#1f2937">Positive</text>
<rect x="959.00" y="192.12" width="42.00" height="372.88" fill="#3B6FB6" stroke="none" rx="2"/>
<text x="980.00" y="187.12" font-size="9" text-anchor="middle" font-weight="400" fill="#4b5563">15</text>
<rect x="105.00" y="664.00" width="18.00" height="12.00" fill="#3B6FB6" stroke="none" rx="2"/>
<text x="130.00" y="675.00" font-size="13" text-anchor="start" font-weight="400" fill="#1f2937">数量</text>
</svg>